<svg xmlns="http://www.w3.org/2000/svg" width="64" height="64" viewBox="0 0 64 64">
  <defs>
    <linearGradient id="egg" x1="0.15" y1="0" x2="0.9" y2="1">
      <stop offset="0" stop-color="#d8e2cc"/>
      <stop offset="0.55" stop-color="#8ba07a"/>
      <stop offset="1" stop-color="#3f4c38"/>
    </linearGradient>
    <radialGradient id="glow" cx="0.5" cy="0.35" r="0.6">
      <stop offset="0" stop-color="#8ba07a" stop-opacity="0.35"/>
      <stop offset="1" stop-color="#8ba07a" stop-opacity="0"/>
    </radialGradient>
    <radialGradient id="shine" cx="0.35" cy="0.25" r="0.5">
      <stop offset="0" stop-color="#ffffff" stop-opacity="0.5"/>
      <stop offset="1" stop-color="#ffffff" stop-opacity="0"/>
    </radialGradient>
  </defs>
  <rect width="64" height="64" rx="14.08" fill="#0b0d0b"/>
  <rect width="64" height="64" rx="14.08" fill="url(#glow)"/>
  <g transform="translate(6.4 6.4) scale(0.8)">
    <path d="M32 6c-10.5 0-19 14-19 29 0 12 8.5 20 19 20s19-8 19-20c0-15-8.5-29-19-29z" fill="url(#egg)"/>
    <path d="M32 6c-10.5 0-19 14-19 29 0 12 8.5 20 19 20s19-8 19-20c0-15-8.5-29-19-29z" fill="url(#shine)"/>
    <path d="M22.5 22c1.8-5.6 4.7-9.6 8-11.8" stroke="#f2efe6" stroke-opacity="0.55" stroke-width="2.6" stroke-linecap="round" fill="none"/>
    <g fill="#e8c36a" opacity="0.9">
      <circle cx="24" cy="34" r="1.6"/>
      <circle cx="38" cy="28" r="1.3"/>
      <circle cx="36" cy="42" r="1.9"/>
    </g>
    <path d="M50 8l1.9 4.3 4.3 1.9-4.3 1.9L50 20.4l-1.9-4.3-4.3-1.9 4.3-1.9z" fill="#e8c36a"/>
  </g>
</svg>